<svg xmlns="http://www.w3.org/2000/svg" width="664" height="465" viewBox="0 0 664 465" fill="none" preserveAspectRatio="xMidYMid meet">
<path d="M301.9 28.1H362.1M255.4 71.6H408.6M199.5 123.7H464.5M136.6 182.4H527.4M68.0 246.5H596.0M-5.7 315.3H669.7M-83.9 388.3H747.9M-166.0 465.0H830.0M332.0 0L-132.8 465M332.0 0L-74.7 465M332.0 0L-16.6 465M332.0 0L41.5 465M332.0 0L99.6 465M332.0 0L157.7 465M332.0 0L215.8 465M332.0 0L273.9 465M332.0 0L332.0 465M332.0 0L390.1 465M332.0 0L448.2 465M332.0 0L506.3 465M332.0 0L564.4 465M332.0 0L622.5 465M332.0 0L680.6 465M332.0 0L738.7 465M332.0 0L796.8 465" stroke="url(#grad)" stroke-width="1.2" stroke-linecap="round" stroke-linejoin="round" opacity="0.2"/>
<defs>
<radialGradient id="grad" cx="0" cy="0" r="1" gradientTransform="matrix(0 168.557 -239.73 0 332.0 255.75000000000003)" gradientUnits="userSpaceOnUse">
<stop offset="0.243" stop-color="#1B4332"/>
<stop offset="0.76" stop-color="#1B4332" stop-opacity="0"/>
</radialGradient>
</defs>
</svg>
